#!OML:ASF I:\golf\golf\golf 2\Subject 1\2002-09-07\Subject1.ASF
:FULLY-SPECIFIED
:DEGREES
272
root -2.896 17.2508 -2.4661 68.5943 41.814 11.1357
lowerback 41.3052 6.29224 8.54715
upperback 15.4006 11.9938 11.4033
thorax -3.31963 5.49016 3.32631
lowerneck -11.8307 -10.8088 0.673294
upperneck -5.29391 -15.0002 -3.66894
head -0.0902554 -7.70646 -1.72001
rclavicle -1.17681e-013 -9.54166e-015
rhumerus 63.9847 -26.714 -49.8653
rradius 26.0127
rwrist -11.5659
rhand -43.0702 19.4327
rfingers 7.12502
rthumb -15.9259 -9.9325
lclavicle -1.17681e-013 -9.54166e-015
lhumerus -16.5521 -25.0762 91.7949
lradius 80.3564
lwrist 21.3127
lhand -12.2285 26.9822
lfingers 7.12502
lthumb 13.8368 56.502
rfemur -91.2716 -6.45352 25.7507
rtibia 40.5634
rfoot -7.12263 1.15993
rtoes 17.5961
lfemur -62.5811 -3.28168 -7.70228
ltibia 24.1978
lfoot -9.06369 -13.1372
ltoes -7.16085
273
root -2.89264 17.2534 -2.4669 68.6277 41.755 11.2082
lowerback 41.3844 6.26524 8.56197
upperback 15.3978 11.9726 11.3772
thorax -3.33602 5.4796 3.29531
lowerneck -11.7769 -10.8016 0.738827
upperneck -5.468 -15.011 -3.65766
head -0.158812 -7.7127 -1.71502
rclavicle -3.18055e-015 -7.95139e-015
rhumerus 64.0219 -26.7636 -49.8886
rradius 26.0959
rwrist -11.6073
rhand -43.1407 19.3036
rfingers 7.12502
rthumb -15.9939 -10.0562
lclavicle -3.18055e-015 -7.95139e-015
lhumerus -16.4933 -25.085 91.7239
lradius 80.3842
lwrist 21.4724
lhand -12.0567 26.7832
lfingers 7.12502
lthumb 14.0023 56.2916
rfemur -91.2397 -6.50155 25.6438
rtibia 40.5328
rfoot -7.2732 1.26267
rtoes 17.6354
lfemur -62.5656 -3.22647 -7.90776
ltibia 24.1826
lfoot -8.92597 -13.3156
ltoes -7.14031
274
root -2.88742 17.2551 -2.47054 68.6831 41.7017 11.3535
lowerback 41.5512 6.1904 8.59362
upperback 15.345 11.919 11.3455
thorax -3.42866 5.45034 3.25194
lowerneck -11.6725 -10.7674 0.748273
upperneck -5.62627 -14.9753 -3.64809
head -0.22501 -7.6931 -1.69842
rclavicle 4.77083e-014 4.6118e-014
rhumerus 64.148 -26.8115 -50.0772
rradius 26.0259
rwrist -11.1846
rhand -43.1808 19.4683
rfingers 7.12502
rthumb -16.0324 -9.88836
lclavicle 4.77083e-014 4.6118e-014
lhumerus -16.4967 -25.0121 91.6949
lradius 80.3409
lwrist 21.7906
lhand -11.91 26.5804
lfingers 7.12502
lthumb 14.1438 56.0789
rfemur -91.1869 -6.62164 25.5091
rtibia 40.5014
rfoot -7.15736 1.16061
rtoes 18.1064
lfemur -62.5306 -3.29754 -8.06045
ltibia 24.1451
lfoot -8.7832 -13.4402
ltoes -7.10597
275
root -2.89354 17.2588 -2.46225 68.6699 41.6272 11.1493
lowerback 41.3858 6.38937 8.32013
upperback 15.3507 12.0405 11.4184
thorax -3.45143 5.49672 3.41682
lowerneck -11.5687 -10.7501 0.712331
upperneck -5.66777 -14.9492 -3.65355
head -0.251935 -7.67719 -1.68511
rclavicle 6.04305e-014 5.24792e-014
rhumerus 64.1807 -26.8074 -50.124
rradius 25.9257
rwrist -10.8582
rhand -43.251 19.8122
rfingers 7.12502
rthumb -16.1001 -9.53902
lclavicle 6.04305e-014 5.24792e-014
lhumerus -16.5446 -24.9734 91.6925
lradius 80.2937
lwrist 21.9584
lhand -11.8782 26.5841
lfingers 7.12502
lthumb 14.1744 56.0805
rfemur -91.2529 -6.39694 25.5219
rtibia 40.4599
rfoot -6.94084 0.951055
rtoes 18.651
lfemur -62.5754 -2.94773 -8.1815
ltibia 24.0983
lfoot -8.61407 -13.7139
ltoes -6.45574
276
root -2.88679 17.2599 -2.46691 68.7135 41.7024 11.3017
lowerback 41.504 6.24882 8.53055
upperback 15.3119 11.9684 11.3915
thorax -3.47763 5.46748 3.30876
lowerneck -11.618 -10.7495 0.74598
upperneck -5.58959 -14.9491 -3.70129
head -0.225168 -7.67882 -1.71154
rclavicle -1.27222e-014 7.95139e-015
rhumerus 64.2294 -26.8555 -50.1986
rradius 25.871
rwrist -10.7115
rhand -43.2591 20.1255
rfingers 7.12502
rthumb -16.1079 -9.22506
lclavicle -1.27222e-014 7.95139e-015
lhumerus -16.5242 -25.0445 91.667
lradius 80.2621
lwrist 21.8561
lhand -12.014 26.6815
lfingers 7.12502
lthumb 14.0435 56.187
rfemur -91.1866 -6.56454 25.5347
rtibia 40.4296
rfoot -6.82761 0.878254
rtoes 19.0711
lfemur -62.5434 -3.26502 -7.99086
ltibia 24.0611
lfoot -8.60264 -13.4602
ltoes -6.85095
277
root -2.87874 17.262 -2.46894 68.7511 41.7151 11.4241
lowerback 41.5582 6.1583 8.67646
upperback 15.3123 11.9182 11.3637
thorax -3.45486 5.44984 3.22936
lowerneck -11.5998 -10.7683 0.791235
upperneck -5.64716 -14.9852 -3.68661
head -0.249722 -7.69807 -1.71082
rclavicle 7.31528e-014 -4.77083e-014
rhumerus 64.1774 -26.9156 -50.085
rradius 25.9059
rwrist -10.826
rhand -43.2979 20.2657
rfingers 7.12502
rthumb -16.1452 -9.08184
lclavicle 7.31528e-014 -4.77083e-014
lhumerus -16.4968 -25.1743 91.6573
lradius 80.3249
lwrist 21.668
lhand -12.2358 26.8983
lfingers 7.12502
lthumb 13.8298 56.4186
rfemur -91.1279 -6.69964 25.5166
rtibia 40.3935
rfoot -6.79265 0.906315
rtoes 19.0742
lfemur -62.5089 -3.57999 -7.80682
ltibia 24.04
lfoot -8.66245 -13.1091
ltoes -8.14145
278
root -2.87894 17.2642 -2.4673 68.7247 41.6254 11.3969
lowerback 41.643 6.22199 8.61956
upperback 15.3044 11.9773 11.3549
thorax -3.49971 5.47108 3.21783
lowerneck -11.46 -10.7966 0.823606
upperneck -5.83823 -15.0404 -3.62609
head -0.332473 -7.72458 -1.68029
rclavicle 1.59028e-014 -8.74653e-014
rhumerus 64.0743 -26.9882 -49.9254
rradius 25.9581
rwrist -10.9744
rhand -43.4501 20.4096
rfingers 7.12502
rthumb -16.2918 -8.92603
lclavicle 1.59028e-014 -8.74653e-014
lhumerus -16.4966 -25.3177 91.6627
lradius 80.4092
lwrist 21.5372
lhand -12.3962 27.1511
lfingers 7.12502
lthumb 13.6752 56.6818
rfemur -91.1014 -6.66341 25.4636
rtibia 40.3632
rfoot -6.77029 0.918019
rtoes 18.9178
lfemur -62.4645 -3.53697 -7.88965
ltibia 24.0097
lfoot -8.69592 -13.078
ltoes -9.01362
279
root -2.87988 17.2652 -2.46738 68.8 41.7016 11.3486
lowerback 41.4758 6.22391 8.70188
upperback 15.3228 11.9867 11.3563
thorax -3.41329 5.48354 3.19149
lowerneck -11.4058 -10.7993 0.857411
upperneck -5.97359 -15.0564 -3.58245
head -0.383852 -7.73271 -1.66277
rclavicle 2.22639e-014 2.8625e-014
rhumerus 64.1391 -27.0883 -50.095
rradius 26.0187
rwrist -11.063
rhand -43.5069 20.6768
rfingers 7.12502
rthumb -16.3465 -8.6543
lclavicle 2.22639e-014 2.8625e-014
lhumerus -16.4237 -25.3512 91.6142
lradius 80.3528
lwrist 21.5083
lhand -12.4974 27.0522
lfingers 7.12502
lthumb 13.5777 56.5895
rfemur -91.1838 -6.62418 25.5351
rtibia 40.3314
rfoot -6.79744 0.896807
rtoes 18.861
lfemur -62.5821 -3.42545 -7.87733
ltibia 23.9942
lfoot -8.67704 -13.2116
ltoes -9.30584
280
root -2.87894 17.2713 -2.46577 68.6683 41.7973 11.3264
lowerback 41.6711 6.16455 8.8416
upperback 15.3216 11.9907 11.3604
thorax -3.44451 5.48379 3.11802
lowerneck -11.4032 -10.798 0.881458
upperneck -6.01339 -15.0604 -3.57652
head -0.398381 -7.73533 -1.66275
rclavicle -2.03555e-013 -9.06458e-014
rhumerus 64.1256 -27.1768 -50.1553
rradius 26.1914
rwrist -11.2732
rhand -43.496 20.7362
rfingers 7.12502
rthumb -16.336 -8.59578
lclavicle -2.03555e-013 -9.06458e-014
lhumerus -16.3519 -25.293 91.5664
lradius 80.3159
lwrist 21.6159
lhand -12.489 26.9177
lfingers 7.12502
lthumb 13.5857 56.4545
rfemur -91.0054 -6.62625 25.5441
rtibia 40.3029
rfoot -6.83375 0.845594
rtoes 18.6849
lfemur -62.4648 -3.38596 -7.87098
ltibia 23.9893
lfoot -8.6458 -13.3858
ltoes -9.55488
281
root -2.87689 17.2699 -2.46555 68.7646 41.7445 11.3736
lowerback 41.5866 6.18233 8.79215
upperback 15.3271 11.9826 11.3564
thorax -3.42252 5.48154 3.14543
lowerneck -11.404 -10.8036 0.832683
upperneck -5.97917 -15.0581 -3.52876
head -0.379912 -7.73316 -1.6424
rclavicle 9.85972e-014 1.74931e-014
rhumerus 63.9932 -27.2198 -50.0184
rradius 26.424
rwrist -11.566
rhand -43.5163 20.6485
rfingers 7.12502
rthumb -16.3555 -8.68185
lclavicle 9.85972e-014 1.74931e-014
lhumerus -16.3132 -25.2534 91.5507
lradius 80.3481
lwrist 21.8091
lhand -12.3437 26.9418
lfingers 7.12502
lthumb 13.7257 56.4691
rfemur -91.0537 -6.61996 25.4259
rtibia 40.277
rfoot -6.79264 0.766517
rtoes 18.5285
lfemur -62.5327 -3.31863 -8.00652
ltibia 23.9925
lfoot -8.61884 -13.4865
ltoes -9.91056
282
root -2.87676 17.2653 -2.46379 68.9044 41.5801 11.4267
lowerback 41.5101 6.25567 8.59342
upperback 15.3132 11.9847 11.3267
thorax -3.44906 5.47845 3.2079
lowerneck -11.4115 -10.7973 0.779829
upperneck -5.95934 -15.0391 -3.46495
head -0.362888 -7.72245 -1.61612
rclavicle 3.18055e-014 -1.43125e-014
rhumerus 63.8828 -27.1833 -49.9023
rradius 26.6134
rwrist -11.9323
rhand -43.6338 20.6002
rfingers 7.12502
rthumb -16.4686 -8.72084
lclavicle 3.18055e-014 -1.43125e-014
lhumerus -16.2801 -25.2037 91.5338
lradius 80.3272
lwrist 22.003
lhand -12.2502 26.8323
lfingers 7.12502
lthumb 13.8159 56.3535
rfemur -91.1773 -6.59423 25.2655
rtibia 40.2567
rfoot -6.7466 0.746645
rtoes 18.5142
lfemur -62.6283 -3.25829 -8.19863
ltibia 23.9886
lfoot -8.61402 -13.5278
ltoes -10.1491
283
root -2.87581 17.2646 -2.46337 68.9663 41.5206 11.4613
lowerback 41.521 6.27018 8.55037
upperback 15.2784 11.9875 11.304
thorax -3.49446 5.47685 3.19886
lowerneck -11.2733 -10.8049 0.745876
upperneck -6.09802 -15.0519 -3.39357
head -0.421399 -7.72589 -1.57418
rclavicle 1.04958e-013 5.725e-014
rhumerus 63.6838 -27.1322 -49.6801
rradius 26.796
rwrist -12.3431
rhand -43.7701 20.5222
rfingers 7.12502
rthumb -16.5999 -8.78784
lclavicle 1.04958e-013 5.725e-014
lhumerus -16.3147 -25.1758 91.5703
lradius 80.3005
lwrist 22.0678
lhand -12.2899 26.5929
lfingers 7.12502
lthumb 13.7776 56.1167
rfemur -91.2261 -6.61029 25.2227
rtibia 40.2373
rfoot -6.73078 0.785945
rtoes 18.6017
lfemur -62.6808 -3.32655 -8.16926
ltibia 24.0026
lfoot -8.55395 -13.4893
ltoes -9.59622
284
root -2.87299 17.2675 -2.46604 68.9273 41.6242 11.4828
lowerback 41.6168 6.19455 8.73794
upperback 15.2427 11.983 11.312
thorax -3.52603 5.47576 3.11369
lowerneck -11.0893 -10.8296 0.718675
upperneck -6.25959 -15.0918 -3.34392
head -0.497405 -7.74246 -1.53636
rclavicle 9.54166e-015 2.38542e-014
rhumerus 63.4209 -27.1252 -49.3934
rradius 26.9952
rwrist -12.6444
rhand -43.8127 20.4152
rfingers 7.12502
rthumb -16.6409 -8.89147
lclavicle 9.54166e-015 2.38542e-014
lhumerus -16.3596 -25.2062 91.6409
lradius 80.295
lwrist 22.0262
lhand -12.3669 26.4522
lfingers 7.12502
lthumb 13.7034 55.981
rfemur -91.1584 -6.6829 25.322
rtibia 40.2168
rfoot -6.735 0.827529
rtoes 18.7776
lfemur -62.6697 -3.46382 -7.97407
ltibia 24.0291
lfoot -8.47435 -13.3944
ltoes -8.88964
